name Visual3d_SIMM_grf.mot
datacolumns 19
datarows 47
range 1.680000 2.140000
endheader
time	ground_force_vx	ground_force_vy	ground_force_vz	ground_force_px	ground_force_py	ground_force_pz	l_ground_force_vx	l_ground_force_vy	l_ground_force_vz	l_ground_force_px	l_ground_force_py	l_ground_force_pz	ground_torque_x	ground_torque_y	ground_torque_z	l_ground_torque_x	l_ground_torque_y	l_ground_torque_z
1.680000	-10.345077	159.467056	34.487679	0.390537	-0.005382	-0.312518	0.844415	89.126740	-28.829319	0.278583	0.000343	0.097112	-0.007263	0.638710	0.012983	0.000557	0.106193	-0.001949
1.690000	-11.981804	189.978714	39.445957	0.389924	-0.006133	-0.313153	-0.416231	69.369034	-23.519688	0.279069	-0.000074	0.094393	-0.007928	0.697188	0.014172	0.000478	0.091201	-0.001674
1.700000	-13.759922	217.869614	43.589191	0.389385	-0.006697	-0.313762	-1.310818	51.431507	-17.933634	0.279724	-0.000322	0.092001	-0.008035	0.706599	0.014363	0.000415	0.079193	-0.001454
1.710000	-15.694611	241.973160	46.721935	0.388936	-0.007075	-0.314309	-1.799670	36.046032	-12.583282	0.280635	-0.000427	0.089383	-0.007563	0.665087	0.013519	0.000385	0.073495	-0.001349
1.720000	-17.733624	261.591003	48.748528	0.388612	-0.007284	-0.314783	-1.918148	23.595997	-7.935022	0.281948	-0.000438	0.085791	-0.006598	0.580244	0.011794	0.000395	0.075394	-0.001384
1.730000	-19.771788	276.426025	49.664955	0.388443	-0.007353	-0.315202	0.000000	0.000000	0.000000	0.000000	0.000000	0.000000	-0.005299	0.465981	0.009472	0.000000	0.000000	0.000000
1.740000	-21.669104	286.524750	49.571732	0.388432	-0.007309	-0.315598	0.000000	0.000000	0.000000	0.000000	0.000000	0.000000	-0.003865	0.339884	0.006909	0.000000	0.000000	0.000000
1.750000	-23.295366	292.227844	48.637821	0.388558	-0.007184	-0.316004	0.000000	0.000000	0.000000	0.000000	0.000000	0.000000	-0.002492	0.219171	0.004455	0.000000	0.000000	0.000000
1.760000	-24.571772	294.125580	47.057980	0.388786	-0.007008	-0.316441	0.000000	0.000000	0.000000	0.000000	0.000000	0.000000	-0.001329	0.116916	0.002377	0.000000	0.000000	0.000000
1.770000	-25.483837	292.971252	45.025131	0.389075	-0.006803	-0.316916	0.000000	0.000000	0.000000	0.000000	0.000000	0.000000	-0.000458	0.040252	0.000818	0.000000	0.000000	0.000000
1.780000	-26.063387	289.575104	42.725708	0.389389	-0.006589	-0.317427	0.000000	0.000000	0.000000	0.000000	0.000000	0.000000	0.000093	-0.008206	-0.000167	0.000000	0.000000	0.000000
1.790000	-26.364761	284.706604	40.320190	0.389695	-0.006380	-0.317965	0.000000	0.000000	0.000000	0.000000	0.000000	0.000000	0.000346	-0.030387	-0.000618	0.000000	0.000000	0.000000
1.800000	-26.444681	279.030579	37.923565	0.389962	-0.006184	-0.318517	0.000000	0.000000	0.000000	0.000000	0.000000	0.000000	0.000351	-0.030910	-0.000628	0.000000	0.000000	0.000000
1.810000	-26.350460	273.088867	35.596992	0.390167	-0.006008	-0.319053	0.000000	0.000000	0.000000	0.000000	0.000000	0.000000	0.000163	-0.014329	-0.000291	0.000000	0.000000	0.000000
1.820000	-26.120457	267.284058	33.358353	0.390299	-0.005852	-0.319541	0.000000	0.000000	0.000000	0.000000	0.000000	0.000000	-0.000176	0.015481	0.000315	0.000000	0.000000	0.000000
1.830000	-25.793892	261.893463	31.191395	0.390356	-0.005717	-0.319954	0.000000	0.000000	0.000000	0.000000	0.000000	0.000000	-0.000625	0.054966	0.001117	0.000000	0.000000	0.000000
1.840000	-25.401068	257.083038	29.054825	0.390337	-0.005600	-0.320257	0.000000	0.000000	0.000000	0.000000	0.000000	0.000000	-0.001151	0.101201	0.002057	0.000000	0.000000	0.000000
1.850000	-24.948326	252.930145	26.908876	0.390240	-0.005502	-0.320421	0.000000	0.000000	0.000000	0.000000	0.000000	0.000000	-0.001750	0.153900	0.003128	0.000000	0.000000	0.000000
1.860000	-24.422710	249.449432	24.735004	0.390062	-0.005423	-0.320424	0.000000	0.000000	0.000000	0.000000	0.000000	0.000000	-0.002438	0.214410	0.004358	0.000000	0.000000	0.000000
1.870000	-23.795200	246.631348	22.535048	0.389797	-0.005358	-0.320250	0.000000	0.000000	0.000000	0.000000	0.000000	0.000000	-0.003237	0.284669	0.005786	0.000000	0.000000	0.000000
1.880000	-23.036541	244.461884	20.323320	0.389435	-0.005305	-0.319896	0.000000	0.000000	0.000000	0.000000	0.000000	0.000000	-0.004162	0.366035	0.007440	0.000000	0.000000	0.000000
1.890000	-22.130028	242.939606	18.115990	0.388973	-0.005260	-0.319366	0.000000	0.000000	0.000000	0.000000	0.000000	0.000000	-0.005215	0.458618	0.009322	0.000000	0.000000	0.000000
1.900000	-21.083809	242.069626	15.917989	0.388413	-0.005221	-0.318689	0.000000	0.000000	0.000000	0.000000	0.000000	0.000000	-0.006381	0.561161	0.011407	0.000000	0.000000	0.000000
1.910000	-19.929863	241.845245	13.716453	0.387769	-0.005185	-0.317900	0.000000	0.000000	0.000000	0.000000	0.000000	0.000000	-0.007627	0.670695	0.013633	0.000000	0.000000	0.000000
1.920000	-18.715515	242.231323	11.491146	0.387062	-0.005151	-0.317035	0.000000	0.000000	0.000000	0.000000	0.000000	0.000000	-0.008900	0.782697	0.015910	0.000000	0.000000	0.000000
1.930000	-17.498350	243.143204	9.230655	0.386314	-0.005119	-0.316132	0.000000	0.000000	0.000000	0.000000	0.000000	0.000000	-0.010138	0.891523	0.018122	0.000000	0.000000	0.000000
1.940000	-16.337923	244.441650	6.939131	0.385556	-0.005089	-0.315227	0.000000	0.000000	0.000000	0.000000	0.000000	0.000000	-0.011282	0.992190	0.020168	0.000000	0.000000	0.000000
1.950000	-15.284895	245.941299	4.633446	0.384822	-0.005065	-0.314353	0.000000	0.000000	0.000000	0.000000	0.000000	0.000000	-0.012291	1.080876	0.021971	0.000000	0.000000	0.000000
1.960000	-14.381666	247.428146	2.345491	0.384139	-0.005051	-0.313533	0.000000	0.000000	0.000000	0.000000	0.000000	0.000000	-0.013129	1.154616	0.023470	0.000000	0.000000	0.000000
1.970000	-13.658851	248.675720	0.118503	0.383521	-0.005048	-0.312787	0.000000	0.000000	0.000000	0.000000	0.000000	0.000000	-0.013771	1.211080	0.024617	0.000000	0.000000	0.000000
1.980000	-13.133021	249.476471	-2.003747	0.382986	-0.005056	-0.312129	0.000000	0.000000	0.000000	0.000000	0.000000	0.000000	-0.014195	1.248339	0.025375	0.000000	0.000000	0.000000
1.990000	-12.800536	249.667557	-3.994890	0.382548	-0.005069	-0.311562	0.000000	0.000000	0.000000	0.000000	0.000000	0.000000	-0.014388	1.265320	0.025720	0.000000	0.000000	0.000000
2.000000	-12.641301	249.139404	-5.856221	0.382212	-0.005081	-0.311083	0.000000	0.000000	0.000000	0.000000	0.000000	0.000000	-0.014356	1.262487	0.025662	0.000000	0.000000	0.000000
2.010000	-12.621568	247.848145	-7.614182	0.381973	-0.005082	-0.310681	0.000000	0.000000	0.000000	0.000000	0.000000	0.000000	-0.014134	1.243020	0.025267	0.000000	0.000000	0.000000
2.020000	-12.698053	245.801956	-9.325085	0.381816	-0.005066	-0.310344	0.000000	0.000000	0.000000	0.000000	0.000000	0.000000	-0.013774	1.211323	0.024622	0.000000	0.000000	0.000000
2.030000	-12.822175	243.031082	-11.075506	0.381719	-0.005030	-0.310057	0.000000	0.000000	0.000000	0.000000	0.000000	0.000000	-0.013325	1.171865	0.023820	0.000000	0.000000	0.000000
2.040000	-12.945722	239.548996	-12.963695	0.381660	-0.004976	-0.309809	0.000000	0.000000	0.000000	0.000000	0.000000	0.000000	-0.012838	1.129044	0.022950	0.000000	0.000000	0.000000
2.050000	-13.019281	235.336792	-15.066206	0.381617	-0.004909	-0.309589	0.000000	0.000000	0.000000	0.000000	0.000000	0.000000	-0.012349	1.086033	0.022076	0.000000	0.000000	0.000000
2.060000	-12.997092	230.316376	-17.409838	0.381585	-0.004836	-0.309389	0.000000	0.000000	0.000000	0.000000	0.000000	0.000000	-0.011869	1.043827	0.021218	0.000000	0.000000	0.000000
2.070000	-12.839244	224.351089	-19.957085	0.381575	-0.004757	-0.309203	0.000000	0.000000	0.000000	0.000000	0.000000	0.000000	-0.011389	1.001577	0.020359	0.000000	0.000000	0.000000
2.080000	-12.509437	217.275848	-22.598757	0.381580	-0.004668	-0.309016	0.000000	0.000000	0.000000	0.000000	0.000000	0.000000	-0.010898	0.958416	0.019482	0.000000	0.000000	0.000000
2.090000	-11.972998	208.914871	-25.157494	0.381582	-0.004563	-0.308808	0.000000	0.000000	0.000000	0.000000	0.000000	0.000000	-0.010393	0.914030	0.018579	0.000000	0.000000	0.000000
2.100000	-11.201419	199.054077	-27.404213	0.381568	-0.004430	-0.308561	0.000000	0.000000	0.000000	0.000000	0.000000	0.000000	-0.009859	0.867001	0.017623	0.000000	0.000000	0.000000
2.110000	-10.182858	187.450745	-29.079548	0.381518	-0.004255	-0.308253	0.000000	0.000000	0.000000	0.000000	0.000000	0.000000	-0.009273	0.815462	0.016576	0.000000	0.000000	0.000000
2.120000	-8.922511	173.897446	-29.923986	0.381397	-0.004023	-0.307839	0.000000	0.000000	0.000000	0.000000	0.000000	0.000000	-0.008625	0.758521	0.015418	0.000000	0.000000	0.000000
2.130000	-7.446500	158.317551	-29.718721	0.381167	-0.003724	-0.307249	0.000000	0.000000	0.000000	0.000000	0.000000	0.000000	-0.007912	0.695814	0.014144	0.000000	0.000000	0.000000
2.140000	-5.811815	140.850739	-28.337616	0.380791	-0.003351	-0.306398	0.000000	0.000000	0.000000	0.000000	0.000000	0.000000	-0.007131	0.627094	0.012747	0.000000	0.000000	0.000000
